<svg width="316" height="148" viewBox="0 0 316 148" fill="none" xmlns="http://www.w3.org/2000/svg">
<path d="M315.612 80.2853H168V107.465H315.612" fill="#41C98E"/>
<path d="M315.612 120.423H168V147.612H315.612" fill="#41C98E"/>
<path d="M315.612 40.1378H168V67.3266H315.612V40.1378Z" fill="#41C98E"/>
<path d="M315.612 0H168V27.1887H315.612V0Z" fill="#41C98E"/>
<path d="M36.8998 73.7995C57.279 73.7995 73.7996 57.2789 73.7996 36.8997C73.7996 16.5205 57.279 -0.00012207 36.8998 -0.00012207C16.5206 -0.00012207 0 16.5205 0 36.8997C0 57.2789 16.5206 73.7995 36.8998 73.7995Z" fill="#FA8FA7"/>
<path d="M110.712 73.7998C131.091 73.7998 147.612 57.2792 147.612 36.8999C147.612 16.5207 131.091 0.00012207 110.712 0.00012207C90.3326 0.00012207 73.812 16.5207 73.812 36.8999C73.812 57.2792 90.3326 73.7998 110.712 73.7998Z" fill="#FA8FA7"/>
<path d="M36.8998 147.612C57.279 147.612 73.7996 131.092 73.7996 110.712C73.7996 90.3331 57.279 73.8125 36.8998 73.8125C16.5206 73.8125 0 90.3331 0 110.712C0 131.092 16.5206 147.612 36.8998 147.612Z" fill="#FA8FA7"/>
<path d="M110.712 147.612C131.091 147.612 147.612 131.092 147.612 110.712C147.612 90.3331 131.091 73.8125 110.712 73.8125C90.3326 73.8125 73.812 90.3331 73.812 110.712C73.812 131.092 90.3326 147.612 110.712 147.612Z" fill="#FA8FA7"/>
</svg>
