<svg width="148" height="147" viewBox="0 0 148 147" fill="none" xmlns="http://www.w3.org/2000/svg">
<path d="M98.3908 48.9598C98.3908 21.917 76.4738 0 49.4404 0C22.407 0 0.480591 21.917 0.480591 48.9598H98.3908Z" fill="#B8A7FC"/>
<path d="M98.3909 97.9102C125.424 97.9102 147.351 75.9932 147.351 48.9504C147.351 21.9075 125.434 0 98.3909 0V97.9102Z" fill="#B8A7FC"/>
<path d="M49.4403 97.9104C49.4403 124.944 71.3573 146.87 98.4001 146.87C125.434 146.87 147.36 124.953 147.36 97.9104H49.4403Z" fill="#B8A7FC"/>
<path d="M48.9881 48.9597C21.9453 48.9597 0.0283203 70.8767 0.0283203 97.9101C0.0283203 124.944 21.9453 146.87 48.9881 146.87V48.9597Z" fill="#B8A7FC"/>
</svg>
