<svg width="317" height="149" viewBox="0 0 317 149" fill="none" xmlns="http://www.w3.org/2000/svg">
<path d="M148.358 64.5323H110.197L143.246 45.4461L133.595 28.728L100.546 47.8142L119.631 14.7634L102.914 5.11221L83.8294 38.1631V0H64.5282V38.1631L45.4432 5.11221L28.7262 14.7634L47.8112 47.8142L14.7625 28.7374L5.11189 45.4555L38.1606 64.5417H0V83.8441H38.1606L5.11189 102.912L14.7625 119.63L47.8112 100.543L28.7262 133.594L45.4432 143.245L64.5282 110.195V148.358H83.8294V110.195L102.914 143.245L119.631 133.594L100.546 100.543L133.595 119.63L143.246 102.912L110.197 83.8253H148.358V64.5229V64.5323ZM74.1788 100.29C59.7546 100.29 48.0743 88.5992 48.0743 74.1835C48.0743 59.7678 59.764 48.0774 74.1788 48.0774C88.5936 48.0774 100.283 59.7678 100.283 74.1835C100.283 88.5992 88.5936 100.29 74.1788 100.29Z" fill="#3779E0"/>
<path d="M267.391 48.9598C267.391 21.917 245.474 0 218.44 0C191.407 0 169.481 21.917 169.481 48.9598H267.391Z" fill="#B8A7FC"/>
<path d="M267.391 97.9102C294.424 97.9102 316.351 75.9932 316.351 48.9504C316.351 21.9075 294.434 0 267.391 0V97.9102Z" fill="#B8A7FC"/>
<path d="M218.44 97.9104C218.44 124.944 240.357 146.87 267.4 146.87C294.434 146.87 316.36 124.953 316.36 97.9104H218.44Z" fill="#B8A7FC"/>
<path d="M217.988 48.9597C190.945 48.9597 169.028 70.8767 169.028 97.9101C169.028 124.944 190.945 146.87 217.988 146.87V48.9597Z" fill="#B8A7FC"/>
</svg>
