<svg width="92" height="92" viewBox="0 0 92 92" fill="none" xmlns="http://www.w3.org/2000/svg">
<path d="M92 0H0V92H92V0Z" fill="#E31B22"/>
<path d="M35.9011 29.7428L33.4144 7.43408H27.0359L21.81 22.7879L16.2215 7.43408H9.84298L7.49878 29.7428H12.7247L13.8061 14.8617L19.0708 29.7428H23.9729L28.9851 14.8941L30.3903 29.7428H35.9011Z" fill="white"/>
<path d="M47.2142 30.2414C51.3651 30.2414 53.6381 28.1368 53.7352 28.0656L51.6953 24.7241C51.5982 24.7889 49.921 25.9286 47.9524 25.9286C45.2132 25.9286 43.9051 24.0572 43.9051 21.4151C43.9051 18.773 45.6471 16.9663 48.2568 16.9663C49.8627 16.9663 51.2356 17.8729 51.3651 17.97L53.4697 14.7257C53.2366 14.389 51.1967 12.6535 47.4797 12.6535C42.461 12.6535 38.5173 16.4288 38.5173 21.5122C38.5173 26.5956 41.8264 30.2414 47.2142 30.2414Z" fill="white"/>
<path d="M25.9286 84.5012V62.1924H20.4242V70.7209H13.0031V62.1924H7.49878V84.5012H13.0031V75.1697H20.4242V84.5012H25.9286Z" fill="white"/>
<path d="M33.285 67.6385C34.8586 67.6385 36.1019 66.3369 36.1019 64.7374C36.1019 63.1379 34.8586 61.8687 33.285 61.8687C31.7114 61.8687 30.4357 63.1314 30.4357 64.7374C30.4357 66.3433 31.7114 67.6385 33.285 67.6385Z" fill="white"/>
<path d="M35.94 70.1834H30.5717V84.5012H35.94V70.1834Z" fill="white"/>
<path d="M45.647 62.1924H40.5442V84.5012H45.647V62.1924Z" fill="white"/>
<path d="M55.3865 62.1924H50.2837V84.5012H55.3865V62.1924Z" fill="white"/>
<path d="M17.5361 57.4781C23.0858 57.4781 25.6631 55.2052 25.9286 55.0368V45.3362H17.031V49.3188H21.0783V52.5307C20.7416 52.6279 19.7055 52.9322 18.0995 52.9322C14.5897 52.9322 11.4101 50.6269 11.4101 45.6406C11.4101 41.2242 14.253 38.5821 18.1643 38.5821C21.1431 38.5821 22.8138 39.819 23.3837 40.1881L25.7602 36.6394C25.2551 36.1343 23.0146 34.0297 17.8988 34.0297C10.9763 34.0297 5.854 38.5109 5.854 45.9385C5.854 53.3661 10.7043 57.4781 17.5297 57.4781" fill="white"/>
<path d="M84.5659 39.9161H79.6833L77.1772 50.6204L74.4315 39.9161H69.9179L67.1722 50.6204L64.569 39.9161H59.4791L64.2323 56.5068H69.4841L71.9578 46.2752L74.6646 56.5068H80.1171L84.5659 39.9161Z" fill="white"/>
<path d="M41.2371 39.4563L40.9198 39.411L40.5636 39.3916C37.1315 39.3916 35.1046 41.943 35.001 42.1114V39.8902H30.5652V56.5651H35.9465V46.0745C36.5487 45.1355 37.8957 43.7886 40.2463 43.7886L41.2371 39.4434V39.4563Z" fill="white"/>
<path d="M57.3098 56.6493V46.8969C57.3098 44.8441 57.4134 42.8949 55.9628 41.4444C54.6547 40.1298 52.7315 39.4952 50.18 39.4952C47.7776 39.4952 45.9903 40.0909 44.8959 40.6025C44.5397 40.7709 44.2548 40.9263 44.0476 41.0558L45.6989 44.3131C45.8996 44.2224 46.1651 44.1188 46.476 44.0087C47.3437 43.7044 48.587 43.3676 49.921 43.3676C51.0996 43.3676 51.6047 43.672 51.9026 43.9051C52.4465 44.339 52.3041 45.3427 52.3041 45.8802H51.935C50.1865 45.8802 42.7524 46.3335 42.7524 51.5723C42.7524 54.7713 44.8052 57.0248 48.1661 57.0248C50.7888 57.0248 52.5048 55.5484 52.8739 55.244V56.6557H57.3163L57.3098 56.6493Z" fill="white"/>
<path d="M52.3688 52.2458C52.2004 52.3429 51.0931 53.1912 49.2734 53.1912C48.3992 53.1912 47.1882 52.7897 47.1882 51.1708C47.1882 50.4974 47.4537 50.0635 47.7581 49.7591C48.7359 48.7813 51.0866 48.8525 52.3688 48.8525V52.2523V52.2458Z" fill="#E31B22"/>
</svg>
